<svg width="200" height="200" viewBox="0 0 200 200" fill="none" xmlns="http://www.w3.org/2000/svg">
<path d="M125 12.5C115.543 12.5108 106.44 16.0932 99.5134 22.5311C92.5866 28.969 88.3479 37.7863 87.6463 47.2168C80.7585 40.9725 71.7969 37.5101 62.5 37.5C52.5544 37.5 43.0161 41.4507 35.9835 48.4833C28.9509 55.5159 25 65.0544 25 75C25.0107 82.746 27.4198 90.2987 31.8963 96.6202C36.3728 102.942 43.75 100 50 100L60.3314 96.6202C75 93.75 80.7211 96.6202 87.6463 96.6202L100 100C102.777 100 110.077 101.038 112.5 100C156.25 81.25 137.5 125 137.5 137.5L150 125L187.5 150V75L150 100V77.8809C153.924 74.3713 157.065 70.0747 159.218 65.271C161.372 60.4673 162.49 55.2644 162.5 50C162.5 40.0544 158.549 30.5159 151.517 23.4833C144.484 16.4507 134.946 12.5 125 12.5Z" fill="#FC7F7F"/>
<path d="M53.3996 102.128L53.0285 127.196L41.9685 127.905L39.1479 183.953L23.4857 185.253L23.56 129.206L12.5 130.152L12.9454 102.247L53.3996 102.128Z" fill="#FC7F7F"/>
<path d="M98.6787 129.797C98.6787 133.62 98.32 137.01 97.6024 139.966C96.8849 142.922 95.8952 145.504 94.6333 147.711C93.3962 149.918 91.9364 151.791 90.2539 153.328C88.5714 154.865 86.7651 156.126 84.8352 157.111C82.93 158.057 80.9506 158.767 78.897 159.24C76.8433 159.673 74.8268 159.91 72.8474 159.949V187.5H55.5523C55.5523 178.474 55.5646 169.488 55.5894 160.541C55.6141 151.593 55.6512 142.568 55.7007 133.463C55.7502 128.654 55.7626 123.846 55.7378 119.037C55.7131 114.229 55.7749 109.381 55.9234 104.493C59.0905 102.995 62.2575 101.872 65.4246 101.123C68.5916 100.374 71.8577 100 75.2227 100C77.1279 100 79.0331 100.256 80.9382 100.769C82.8434 101.242 84.662 102.01 86.394 103.074C88.1507 104.139 89.7714 105.479 91.2559 107.095C92.7652 108.671 94.0642 110.563 95.1529 112.77C96.2416 114.977 97.0952 117.5 97.7138 120.338C98.3571 123.136 98.6787 126.289 98.6787 129.797ZM82.2001 131.807C82.2001 129.245 81.7053 127.255 80.7156 125.836C79.7506 124.378 78.4887 123.649 76.9299 123.649C76.4103 123.649 75.866 123.727 75.2969 123.885C74.7526 124.003 74.233 124.161 73.7381 124.358L73.2928 141.622C73.6392 141.7 73.9732 141.74 74.2948 141.74C74.6165 141.74 74.9505 141.74 75.2969 141.74C76.1876 141.74 77.0413 141.503 77.8578 141.03C78.699 140.557 79.4413 139.887 80.0846 139.02C80.7279 138.114 81.2352 137.069 81.6063 135.887C82.0022 134.665 82.2001 133.305 82.2001 131.807Z" fill="#FC7F7F"/>
<path d="M137.5 103.547L135.422 128.497C134.704 128.181 133.987 127.965 133.269 127.846C132.551 127.728 131.834 127.669 131.116 127.669C129.285 127.669 127.541 128.063 125.883 128.851C124.226 129.6 122.753 130.763 121.467 132.34C120.205 133.916 119.19 135.887 118.423 138.252C117.681 140.617 117.31 143.395 117.31 146.588C117.31 148.637 117.508 150.411 117.904 151.909C118.324 153.407 118.906 154.648 119.648 155.633C120.39 156.619 121.269 157.348 122.283 157.821C123.298 158.294 124.411 158.53 125.624 158.53C126.539 158.53 127.492 158.373 128.481 158.057C129.471 157.742 130.448 157.328 131.413 156.816C132.378 156.303 133.318 155.712 134.234 155.042C135.149 154.372 135.991 153.682 136.758 152.973L135.273 180.76C134.308 181.548 133.257 182.258 132.118 182.889C131.005 183.48 129.855 184.012 128.667 184.485C127.479 184.918 126.292 185.253 125.104 185.49C123.916 185.726 122.778 185.845 121.689 185.845C118.547 185.845 115.615 184.918 112.893 183.066C110.172 181.213 107.809 178.671 105.805 175.439C103.8 172.207 102.217 168.404 101.054 164.029C99.9159 159.614 99.3468 154.865 99.3468 149.78C99.3468 143.041 99.953 136.695 101.165 130.743C102.378 124.752 104.159 119.51 106.51 115.017C108.86 110.524 111.768 106.976 115.232 104.375C118.72 101.774 122.729 100.473 127.257 100.473C128.964 100.473 130.708 100.69 132.49 101.123C134.296 101.557 135.966 102.365 137.5 103.547Z" fill="#FC7F7F"/>
</svg>
