<svg width="16" height="16" viewBox="0 0 16 16" fill="none" xmlns="http://www.w3.org/2000/svg">
<path d="M10 1C9.24348 1.00087 8.51521 1.28746 7.96107 1.80249C7.40693 2.31752 7.06783 3.0229 7.0117 3.77734C6.46068 3.2778 5.74375 3.00081 5 3C4.20435 3 3.44129 3.31605 2.87868 3.87866C2.31607 4.44127 2 5.20435 2 6C2.00085 6.61968 2.19358 7.22389 2.5517 7.72961C2.90982 8.23533 3.5 8 4 8L4.82651 7.72961C6 7.5 6.45769 7.72961 7.0117 7.72961L8 8C8.22213 8 8.80616 8.08307 9 8C12.5 6.5 11 10 11 11L12 10L15 12V6L12 8V6.23047C12.3139 5.9497 12.5652 5.60598 12.7375 5.22168C12.9098 4.83738 12.9992 4.42115 13 4C13 3.20435 12.6839 2.44127 12.1213 1.87866C11.5587 1.31605 10.7956 1 10 1Z" fill="#FC7F7F"/>
<path d="M4.27197 8.17027L4.24228 10.1757L3.35748 10.2324L3.13183 14.7162L1.87886 14.8203L1.8848 10.3365L1 10.4122L1.03563 8.17973L4.27197 8.17027Z" fill="#FC7F7F"/>
<path d="M7.8943 10.3838C7.8943 10.6896 7.8656 10.9608 7.80819 11.1973C7.75079 11.4338 7.67162 11.6403 7.57067 11.8169C7.47169 11.9935 7.35491 12.1432 7.22031 12.2662C7.08571 12.3892 6.94121 12.4901 6.78682 12.5689C6.6344 12.6446 6.47605 12.7014 6.31176 12.7392C6.14747 12.7739 5.98614 12.7928 5.82779 12.7959V15H4.44418C4.44418 14.2779 4.44517 13.559 4.44715 12.8432C4.44913 12.1275 4.4521 11.4054 4.45606 10.677C4.46002 10.2923 4.46101 9.90766 4.45903 9.52297C4.45705 9.13829 4.462 8.75045 4.47387 8.35946C4.72724 8.23964 4.9806 8.14977 5.23397 8.08986C5.48733 8.02995 5.74861 8 6.01781 8C6.17023 8 6.32264 8.0205 6.47506 8.06149C6.62747 8.09932 6.77296 8.16081 6.91152 8.24595C7.05206 8.33108 7.18171 8.43829 7.30048 8.56757C7.42122 8.69369 7.52514 8.84505 7.61223 9.02162C7.69933 9.1982 7.76762 9.4 7.8171 9.62703C7.86857 9.8509 7.8943 10.1032 7.8943 10.3838ZM6.57601 10.5446C6.57601 10.3396 6.53642 10.1804 6.45724 10.0669C6.38005 9.95023 6.2791 9.89189 6.15439 9.89189C6.11283 9.89189 6.06928 9.8982 6.02375 9.91081C5.98021 9.92027 5.93864 9.93288 5.89905 9.94865L5.86342 11.3297C5.89113 11.336 5.91785 11.3392 5.94359 11.3392C5.96932 11.3392 5.99604 11.3392 6.02375 11.3392C6.09501 11.3392 6.1633 11.3203 6.22862 11.2824C6.29592 11.2446 6.3553 11.191 6.40677 11.1216C6.45823 11.0491 6.49881 10.9655 6.5285 10.8709C6.56017 10.7732 6.57601 10.6644 6.57601 10.5446Z" fill="#FC7F7F"/>
<path d="M11 8.28378L10.8337 10.2797C10.7763 10.2545 10.7189 10.2372 10.6615 10.2277C10.6041 10.2182 10.5467 10.2135 10.4893 10.2135C10.3428 10.2135 10.2033 10.245 10.0707 10.3081C9.93804 10.368 9.82027 10.461 9.71734 10.5872C9.61639 10.7133 9.53523 10.8709 9.47387 11.0601C9.41449 11.2493 9.3848 11.4716 9.3848 11.727C9.3848 11.891 9.40063 12.0329 9.4323 12.1527C9.46595 12.2725 9.51247 12.3718 9.57185 12.4507C9.63124 12.5295 9.7015 12.5878 9.78266 12.6257C9.86382 12.6635 9.95289 12.6824 10.0499 12.6824C10.1231 12.6824 10.1993 12.6698 10.2785 12.6446C10.3577 12.6194 10.4359 12.5863 10.5131 12.5453C10.5903 12.5043 10.6655 12.457 10.7387 12.4034C10.812 12.3498 10.8793 12.2946 10.9406 12.2378L10.8219 14.4608C10.7447 14.5239 10.6605 14.5806 10.5695 14.6311C10.4804 14.6784 10.3884 14.7209 10.2933 14.7588C10.1983 14.7935 10.1033 14.8203 10.0083 14.8392C9.9133 14.8581 9.82225 14.8676 9.73515 14.8676C9.48377 14.8676 9.24921 14.7935 9.03147 14.6453C8.81374 14.4971 8.6247 14.2937 8.46437 14.0351C8.30404 13.7766 8.17736 13.4723 8.08432 13.1223C7.99327 12.7691 7.94774 12.3892 7.94774 11.9824C7.94774 11.4432 7.99624 10.9356 8.09323 10.4595C8.19022 9.98018 8.33274 9.56081 8.52078 9.20135C8.70883 8.84189 8.94141 8.55811 9.21853 8.35C9.49762 8.14189 9.81829 8.03784 10.1805 8.03784C10.3171 8.03784 10.4567 8.05518 10.5992 8.08986C10.7437 8.12455 10.8773 8.18919 11 8.28378Z" fill="#FC7F7F"/>
</svg>
